# xmcd CD database file generated by Grip 2.96
# 
# Track frame offsets:
#       180
#       13838
#       27588
#       42011
#       57477
#       73174
#       86637
#       111284
#       123217
#       137825
#       152682
#       170599
# 
# Disc length: 2443 seconds
# 
# Revision: 0
# Processed by: cddbd v1.4PL0 Copyright (c) Steve Scherf et al.
# Submitted via: Grip 2.96
# 
DISCID=a709890c
DTITLE=Tony O - Top Of The Blues
DYEAR=1900
DGENRE=
TTITLE0=I Think About You
TTITLE1=Reconsider Baby
TTITLE2=Goin' Home
TTITLE3=Hard Hard Way
TTITLE4=Oh Baby
TTITLE5=Killing Floor
TTITLE6=I Want You To Love Me
TTITLE7=Top Of The Blues
TTITLE8=Hush Hush
TTITLE9=Miserable Woman
TTITLE10=Keep On Movin'
TTITLE11=Step On It
EXTD=
EXTT0=
EXTT1=
EXTT2=
EXTT3=
EXTT4=
EXTT5=
EXTT6=
EXTT7=
EXTT8=
EXTT9=
EXTT10=
EXTT11=
PLAYORDER=
